<svg width="15" height="20" viewBox="0 0 15 20" fill="none" xmlns="http://www.w3.org/2000/svg">
<path d="M6.90821 3.95131C7.01154 3.95131 7.06719 3.8864 7.08308 3.78904C7.32156 2.47465 7.29771 2.40973 8.68089 2.15822C8.77621 2.13387 8.83987 2.07708 8.83987 1.9716C8.83987 1.87424 8.77621 1.80932 8.68089 1.7931C7.29771 1.54158 7.32156 1.47667 7.08308 0.162271C7.06719 0.0649086 7.01154 0 6.90821 0C6.80487 0 6.74923 0.0649086 6.73332 0.162271C6.49485 1.47667 6.51869 1.54158 5.13554 1.7931C5.03221 1.80932 4.97656 1.87424 4.97656 1.9716C4.97656 2.07708 5.03221 2.13387 5.13554 2.15822C6.51869 2.40973 6.49485 2.47465 6.73332 3.78904C6.74923 3.8864 6.80487 3.95131 6.90821 3.95131Z" fill="#5B5B5B"/>
<path d="M3.06042 9.53328C3.21145 9.53328 3.3148 9.42785 3.33069 9.28179C3.61686 7.11544 3.6884 7.11544 5.88236 6.68543C6.0175 6.66108 6.12084 6.56372 6.12084 6.40956C6.12084 6.26352 6.0175 6.15804 5.88236 6.14182C3.6884 5.82539 3.60891 5.75236 3.33069 3.55358C3.3148 3.39943 3.21145 3.29395 3.06042 3.29395C2.91733 3.29395 2.81399 3.39943 2.79014 3.5617C2.53577 5.72802 2.41654 5.71991 0.238474 6.14182C0.103339 6.16616 0 6.26352 0 6.40956C0 6.57184 0.103339 6.66108 0.270271 6.68543C2.43244 7.04242 2.53577 7.09922 2.79014 9.26551C2.81399 9.42785 2.91733 9.53328 3.06042 9.53328Z" fill="#5B5B5B"/>
<path d="M8.45132 18.5073C8.65799 18.5073 8.80899 18.3531 8.84871 18.1341C9.41313 13.696 10.0253 13.0144 14.3336 12.5276C14.5563 12.5032 14.7073 12.341 14.7073 12.1219C14.7073 11.9109 14.5563 11.7487 14.3336 11.7243C10.0253 11.2375 9.41313 10.556 8.84871 6.10975C8.80899 5.89067 8.65799 5.74463 8.45132 5.74463C8.24465 5.74463 8.09358 5.89067 8.06178 6.10975C7.49739 10.556 6.87736 11.2375 2.57687 11.7243C2.34635 11.7487 2.19531 11.9109 2.19531 12.1219C2.19531 12.341 2.34635 12.5032 2.57687 12.5276C6.86941 13.1037 7.46559 13.696 8.06178 18.1341C8.09358 18.3531 8.24465 18.5073 8.45132 18.5073Z" fill="#5B5B5B"/>
</svg>
