<svg width="19" height="18" viewBox="0 0 19 18" fill="none" xmlns="http://www.w3.org/2000/svg">
<path d="M15.5793 11.5973C15.8205 13.669 15.8862 13.7348 18.002 14.0088C18.2212 14.0417 18.3747 14.2061 18.3747 14.4144C18.3747 14.6117 18.2212 14.7761 18.0129 14.8199C15.8533 15.2255 15.8314 15.2255 15.5793 17.2424C15.5464 17.4507 15.371 17.6042 15.1737 17.6042C14.9544 17.6042 14.79 17.4397 14.768 17.2205C14.5378 15.2146 14.4721 15.1378 12.3673 14.8199C12.1261 14.7761 11.9727 14.6227 11.9727 14.4144C11.9727 14.2171 12.1151 14.0526 12.3234 14.0088C14.4721 13.6142 14.5378 13.6142 14.768 11.6083C14.79 11.389 14.9544 11.2246 15.1737 11.2246C15.3819 11.2246 15.5574 11.3781 15.5793 11.5973Z" fill="#B5B5B5"/>
<path d="M6.07403 0.274036C6.35907 1.76479 6.32616 1.7319 7.81704 2.02786C7.99247 2.04979 8.09112 2.18132 8.09112 2.34574C8.09112 2.4992 7.99247 2.63074 7.81704 2.66363C6.32616 2.94862 6.35907 2.91574 6.07403 4.40649C6.04112 4.57093 5.9096 4.68052 5.75612 4.68052C5.59169 4.68052 5.47109 4.57093 5.43822 4.40649C5.15318 2.91574 5.18609 2.94862 3.69518 2.66363C3.51978 2.63074 3.41016 2.4992 3.41016 2.34574C3.41016 2.18132 3.51978 2.04979 3.69518 2.02786C5.18609 1.7319 5.15318 1.76479 5.43822 0.274036C5.47109 0.109614 5.59169 0 5.75612 0C5.9096 0 6.04112 0.109614 6.07403 0.274036Z" fill="#B5B5B5"/>
<path d="M8.28577 14.8416C8.28577 16.2447 7.1457 17.3957 5.75347 17.3957C4.35027 17.3957 3.19922 16.2447 3.19922 14.8416C3.19922 13.4605 4.35027 12.3096 5.75347 12.3096C7.1457 12.3096 8.28577 13.4605 8.28577 14.8416Z" fill="#B5B5B5"/>
<path d="M4.74673 7.19089C4.74673 8.49531 3.67241 9.56954 2.37884 9.56954C1.07432 9.56954 0 8.49531 0 7.19089C0 5.88652 1.07432 4.82324 2.37884 4.82324C3.67241 4.82324 4.74673 5.88652 4.74673 7.19089Z" fill="#B5B5B5"/>
<path d="M18.0984 4.98734C18.0984 7.03495 16.6292 8.73888 14.6862 9.09999C14.7328 8.85826 14.7549 8.608 14.7549 8.35248C14.7549 5.97388 12.8255 4.04465 10.4357 4.04465C10.2304 4.04465 10.0283 4.05903 9.83203 4.09179C10.2382 2.21138 11.9056 0.811035 13.9108 0.811035C16.2238 0.811035 18.0984 2.67448 18.0984 4.98734Z" fill="#B5B5B5"/>
<path d="M10.4363 11.5973C12.2341 11.5973 13.6812 10.1504 13.6812 8.35274C13.6812 6.56602 12.2341 5.11914 10.4363 5.11914C8.63847 5.11914 7.19141 6.56602 7.19141 8.35274C7.19141 10.1504 8.63847 11.5973 10.4363 11.5973Z" fill="#B5B5B5"/>
</svg>
