<svg width="19" height="15" viewBox="0 0 19 15" fill="none" xmlns="http://www.w3.org/2000/svg">
<path d="M0 7.49652C0 7.91742 0.239478 8.21496 0.740204 8.29476C1.64006 8.43268 1.99565 8.88984 1.99565 10.0582V12.0974C1.99565 14.0712 2.8955 15.0001 4.85486 15.0001C4.97097 15.0001 5.09435 14.9783 5.18143 14.9494C5.40639 14.855 5.52976 14.6736 5.52976 14.4341C5.52976 14.1511 5.40639 14.006 5.1524 13.9407C5.07983 13.9261 5.00726 13.9116 4.92018 13.9043C3.70102 13.8173 3.25835 13.2948 3.25835 11.9523V9.54296C3.25835 8.31654 2.61248 7.63437 1.48041 7.52558C1.45864 7.52558 1.45864 7.49652 1.48041 7.49652C2.61248 7.38766 3.25835 6.70551 3.25835 5.4791V3.06254C3.25835 1.71276 3.70102 1.20478 4.92018 1.1177C5.03629 1.11044 5.13788 1.09593 5.21046 1.0669C5.4209 0.99433 5.52976 0.834681 5.52976 0.580687C5.52976 0.326695 5.39913 0.152529 5.1524 0.0654468C5.04355 0.0291623 4.92744 0.0146484 4.7823 0.0146484C2.88825 0.0146484 1.99565 0.958044 1.99565 2.91741V4.96386C1.99565 6.1177 1.64006 6.58214 0.740204 6.72003C0.239478 6.79985 0 7.08287 0 7.49652ZM18.2366 7.49652C18.2366 7.08287 17.9899 6.79985 17.4892 6.72003C16.5965 6.58214 16.2337 6.1177 16.2337 4.96386V2.91741C16.2337 0.958044 15.3411 0.0146484 13.447 0.0146484C13.3019 0.0146484 13.193 0.0291623 13.0842 0.0654468C12.8375 0.152529 12.6995 0.326695 12.6995 0.580687C12.6995 0.834681 12.8157 0.99433 13.0261 1.0669C13.0987 1.09593 13.193 1.11044 13.3092 1.1177C14.5283 1.20478 14.9782 1.71276 14.9782 3.06254V5.4791C14.9782 6.70551 15.6168 7.38766 16.749 7.49652C16.7707 7.49652 16.7707 7.52558 16.749 7.52558C15.6168 7.63437 14.9782 8.31654 14.9782 9.54296V11.9523C14.9782 13.2948 14.5283 13.8173 13.3092 13.9043C13.2221 13.9116 13.1568 13.9261 13.0842 13.9407C12.8302 14.006 12.6995 14.1511 12.6995 14.4341C12.6995 14.6736 12.8302 14.855 13.0552 14.9494C13.1422 14.9783 13.2584 15.0001 13.3744 15.0001C15.3339 15.0001 16.2337 14.0712 16.2337 12.0974V10.0582C16.2337 8.88984 16.5965 8.43268 17.4892 8.29476C17.9899 8.21496 18.2366 7.91742 18.2366 7.49652Z" fill="#B5B5B5"/>
<path d="M12.4976 8.54155C13.0781 8.54155 13.5498 8.0699 13.5498 7.49659C13.5498 6.91603 13.0781 6.44434 12.4976 6.44434C11.917 6.44434 11.4453 6.91603 11.4453 7.49659C11.4453 8.0699 11.917 8.54155 12.4976 8.54155Z" fill="#B5B5B5"/>
<path d="M9.10753 8.54155C9.68805 8.54155 10.1598 8.0699 10.1598 7.49659C10.1598 6.91603 9.68805 6.44434 9.10753 6.44434C8.53422 6.44434 8.0625 6.91603 8.0625 7.49659C8.0625 8.0699 8.53422 8.54155 9.10753 8.54155Z" fill="#B5B5B5"/>
<path d="M5.72413 8.54155C6.30468 8.54155 6.77638 8.0699 6.77638 7.49659C6.77638 6.91603 6.29742 6.44434 5.72413 6.44434C5.14358 6.44434 4.67188 6.91603 4.67188 7.49659C4.67188 8.0699 5.14358 8.54155 5.72413 8.54155Z" fill="#B5B5B5"/>
</svg>
