<svg width="16" height="18" viewBox="0 0 16 18" fill="none" xmlns="http://www.w3.org/2000/svg">
<path d="M10.9559 0.714569L14.6982 4.38031C15.254 4.93053 15.4392 5.48789 15.4392 6.36681V12.1691C15.4392 13.6554 14.6686 14.4129 13.142 14.4129H11.8452V13.2624H13.0753C13.846 13.2624 14.2461 12.8622 14.2461 12.1477V6.03811H10.778C9.92586 6.03811 9.51086 5.6451 9.51086 4.8162V1.15046H6.23544C5.46474 1.15046 5.07199 1.55776 5.07199 2.26518V3.5657H3.87891V2.24375C3.87891 0.757446 4.64959 0 6.17615 0H9.01435C9.80726 0 10.4297 0.192934 10.9559 0.714569ZM10.5854 4.6447C10.5854 4.8948 10.6891 5.00199 10.9485 5.00199H13.9349L10.5854 1.71497V4.6447Z" fill="#8BCF16"/>
<path d="M0.285156 15.735C0.285156 17.2285 1.04843 17.9788 2.5824 17.9788H9.54822C11.0822 17.9788 11.8455 17.2214 11.8455 15.735V10.1543C11.8455 9.23963 11.7343 8.83945 11.1415 8.25349L7.05832 4.24476C6.49513 3.68739 6.02827 3.56592 5.1983 3.56592H2.5824C1.05584 3.56592 0.285156 4.31622 0.285156 5.80966V15.735ZM1.47825 15.7136V5.82395C1.47825 5.12367 1.87099 4.71637 2.64169 4.71637H5.07232V8.86089C5.07232 9.7612 5.54659 10.2114 6.46549 10.2114H10.6524V15.7136C10.6524 16.4282 10.2523 16.8283 9.48895 16.8283H2.63427C1.87099 16.8283 1.47825 16.4282 1.47825 15.7136ZM6.60629 9.13244C6.30986 9.13244 6.1913 9.01807 6.1913 8.73226V4.98076L10.4227 9.13244H6.60629Z" fill="#8BCF16"/>
</svg>
