<svg width="10" height="14" viewBox="0 0 10 14" fill="none" xmlns="http://www.w3.org/2000/svg">
<path d="M0.745574 13.9902H6.63561C7.07364 13.9902 7.3905 13.7065 7.3905 13.2467C7.3905 12.8064 7.08296 12.5227 6.64493 12.5227H4.55732L6.82201 1.4675H8.90961C9.34764 1.4675 9.6552 1.18379 9.6552 0.72397C9.6552 0.283718 9.35696 0 8.91893 0H3.00094C2.56291 0 2.26468 0.283718 2.26468 0.72397C2.26468 1.18379 2.57223 1.4675 3.01026 1.4675H5.09787L2.83318 12.5227H0.736254C0.29823 12.5227 0 12.8064 0 13.2467C0 13.7065 0.30755 13.9902 0.745574 13.9902Z" fill="#B5B5B5"/>
</svg>
