<svg width="24" height="18" viewBox="0 0 24 18" fill="none" xmlns="http://www.w3.org/2000/svg">
<path d="M13.5762 3.24669V3.66773H13.3797C12.9563 3.66773 12.5675 3.71889 12.2196 3.82095V3.28412C12.2196 1.9555 11.4617 1.25376 10.2173 1.25376H3.34961C2.11456 1.25376 1.34733 1.9555 1.34733 3.28412V7.4103C1.34733 8.73892 2.11456 9.42197 3.34961 9.42197H4.13555C4.49112 9.42197 4.78116 9.63716 4.78116 10.1143V11.9856L7.21382 9.80556C7.53195 9.52487 7.72843 9.42197 8.17755 9.42197H10.0956V10.6851H8.13076L5.6326 12.8184C5.11799 13.2674 4.84665 13.492 4.43498 13.492C3.84551 13.492 3.52739 13.0804 3.52739 12.4441V10.6851H3.28412C1.32862 10.6851 0 9.48747 0 7.42904V3.24669C0 1.19763 1.32862 0 3.28412 0H10.2828C12.2383 0 13.5762 1.19763 13.5762 3.24669Z" fill="#B5B5B5"/>
<path d="M7.67313 2.70411L9.45087 7.47589C9.6193 7.94371 9.36667 8.36478 8.88011 8.36478C8.56202 8.36478 8.36553 8.19635 8.25324 7.84081L7.84156 6.63384H5.7457L5.34337 7.84081C5.22173 8.19635 5.02528 8.36478 4.70715 8.36478C4.22998 8.36478 3.968 7.94371 4.14574 7.47589L5.90478 2.70411C6.05447 2.29243 6.36325 2.06787 6.78428 2.06787C7.21466 2.06787 7.52344 2.29243 7.67313 2.70411ZM6.08253 5.62334H7.50473L6.78911 3.5127L6.08253 5.62334Z" fill="#B5B5B5"/>
<path d="M23.6606 6.91467V11.097C23.6606 13.1554 22.332 14.3531 20.3765 14.3531H20.1426V16.1121C20.1426 16.7483 19.8151 17.16 19.235 17.16C18.8233 17.16 18.552 16.9355 18.028 16.4863L15.5298 14.3531H13.3779C11.3288 14.3531 10.0938 13.1554 10.0938 11.1064V6.91467C10.0938 4.86559 11.3288 3.66797 13.3779 3.66797H20.3765C22.332 3.66797 23.6606 4.86559 23.6606 6.91467ZM14.4445 7.2702C14.1077 7.2702 13.855 7.50413 13.855 7.82226C13.855 8.14035 14.1077 8.37428 14.4445 8.37428H14.9778C15.1836 9.09473 15.5486 9.76839 16.0538 10.3391C15.5673 10.6479 14.9872 10.8818 14.3322 11.0409C14.0141 11.1157 13.8176 11.4245 13.8831 11.7613C13.9767 12.0794 14.2948 12.2291 14.641 12.1356C15.455 11.9578 16.2316 11.621 16.9052 11.1251C17.5508 11.6116 18.3181 11.9578 19.0666 12.1356C19.4689 12.2198 19.7964 12.0982 19.8806 11.7613C19.9835 11.3964 19.8151 11.1157 19.4502 11.0409C18.8046 10.8912 18.2339 10.6572 17.738 10.3391C18.2432 9.78709 18.6081 9.11343 18.8046 8.37428H19.3379C19.6841 8.37428 19.9368 8.14035 19.9368 7.82226C19.9368 7.50413 19.6841 7.2702 19.3379 7.2702H14.4445ZM16.9052 9.6374C16.5778 9.26313 16.3158 8.8421 16.138 8.37428H17.6444C17.476 8.83275 17.2234 9.25378 16.9052 9.6374ZM16.138 5.26792C15.8573 5.39891 15.7263 5.73574 15.876 6.04452L16.2035 6.73688C16.3345 7.02696 16.6713 7.14856 16.9614 7.01757C17.2702 6.86787 17.3918 6.53104 17.2514 6.24101L16.9146 5.55799C16.7555 5.23987 16.4374 5.09952 16.138 5.26792Z" fill="#B5B5B5"/>
</svg>
