<svg width="19" height="18" viewBox="0 0 19 18" fill="none" xmlns="http://www.w3.org/2000/svg">
<path d="M5.17822 18.0002C5.6321 18.0002 5.94155 17.7629 6.49857 17.2575L9.26305 14.7818H14.1112C16.6487 14.7818 17.9794 13.4099 17.9794 10.9136V4.91019C17.9794 2.41392 16.6487 1.04199 14.1112 1.04199H3.8682C1.33067 1.04199 0 2.41392 0 4.91019V10.9136C0 13.4099 1.33067 14.7818 3.8682 14.7818H4.16734V16.8346C4.16734 17.5463 4.52837 18.0002 5.17822 18.0002ZM5.55989 16.3085V13.9876C5.55989 13.4821 5.37422 13.2965 4.86878 13.2965H3.8682C2.20745 13.2965 1.48539 12.5021 1.48539 10.9136V4.91019C1.48539 3.33197 2.20745 2.53769 3.8682 2.53769H14.1112C15.7719 2.53769 16.494 3.33197 16.494 4.91019V10.9136C16.494 12.5021 15.7719 13.2965 14.1112 13.2965H9.18053C8.6854 13.2965 8.42752 13.3686 8.09743 13.7194L5.55989 16.3085Z" fill="#B5B5B5"/>
<path d="M4.49837 7.74647H7.90239C8.53161 7.74647 8.85139 7.43703 8.85139 6.80779V5.3224C8.85139 4.69318 8.53161 4.39404 7.90239 4.39404H4.49837C3.85883 4.39404 3.53906 4.69318 3.53906 5.3224V6.80779C3.53906 7.43703 3.85883 7.74647 4.49837 7.74647ZM5.45769 11.398H8.36657C9.00611 11.398 9.31557 11.0989 9.31557 10.4594V9.48975C9.31557 8.86052 9.00611 8.55106 8.36657 8.55106H5.45769C4.82846 8.55106 4.50869 8.86052 4.50869 9.48975V10.4594C4.50869 11.0989 4.82846 11.398 5.45769 11.398ZM11.0691 10.9339H13.4726C14.1018 10.9339 14.4113 10.6244 14.4113 10.0055V5.8588C14.4113 5.22957 14.1018 4.92011 13.4726 4.92011H11.0691C10.4296 4.92011 10.1202 5.22957 10.1202 5.8588V10.0055C10.1202 10.6244 10.4296 10.9339 11.0691 10.9339Z" fill="#B5B5B5"/>
</svg>
