<svg width="15" height="16" viewBox="0 0 15 16" fill="none" xmlns="http://www.w3.org/2000/svg">
<path d="M11.8349 10.4472C7.95502 10.4472 5.57496 8.08859 5.57496 4.30212C5.57496 3.2223 5.78621 2.27035 6.04675 1.75886C6.15238 1.55284 6.17349 1.45338 6.17349 1.3113C6.17349 1.07686 5.95521 0.799805 5.65946 0.799805C5.60313 0.799805 5.46934 0.821117 5.27217 0.899262C2.6668 1.96488 0.800781 4.67154 0.800781 7.7192C0.800781 11.8325 4.11031 15.1643 8.18036 15.1643C11.0251 15.1643 13.5953 13.5517 14.8417 10.8948C14.9332 10.71 14.9403 10.5537 14.9403 10.4756C14.9403 10.1843 14.6938 9.98544 14.4755 9.98544C14.3628 9.98544 14.2783 9.9925 14.1093 10.0564C13.539 10.2909 12.6799 10.4472 11.8349 10.4472ZM1.9063 7.66947C1.9063 5.4601 3.04704 3.37149 4.87081 2.19931C4.64548 2.85999 4.52577 3.59172 4.52577 4.40158C4.52577 8.84166 7.18044 11.4844 11.6729 11.4844C12.3983 11.4844 13.0109 11.3991 13.5953 11.1931C12.525 12.9762 10.49 14.0631 8.22961 14.0631C4.61027 14.0631 1.9063 11.3423 1.9063 7.66947Z" fill="#1F1F1F"/>
</svg>
