<svg width="25" height="19" viewBox="0 0 25 19" fill="none" xmlns="http://www.w3.org/2000/svg">
<path d="M4.73669 11.109V13.1355C4.73669 14.0389 4.27279 14.4906 3.34498 14.4906H1.39171C0.463902 14.4906 0 14.0389 0 13.1355V11.109C0 10.2056 0.463902 9.75391 1.39171 9.75391H3.34498C4.27279 9.75391 4.73669 10.2056 4.73669 11.109Z" fill="#B5B5B5"/>
<path d="M12.4763 1.35508V2.60481C10.1406 2.76974 8.16702 4.79513 8.15592 7.44687H4.04063C3.10062 7.44687 2.63672 6.99518 2.63672 6.07956V1.35508C2.63672 0.451694 3.10062 0 4.04063 0H11.0846C12.0247 0 12.4763 0.451694 12.4763 1.35508Z" fill="#B5B5B5"/>
<path d="M24.0742 5.59139V11.2437C24.0742 12.1593 23.6103 12.611 22.6702 12.611H19.8136C18.8858 12.611 18.4219 12.1593 18.4219 11.2437V5.59139C18.4219 4.67582 18.8858 4.22412 19.8136 4.22412H22.6702C23.6103 4.22412 24.0742 4.67582 24.0742 5.59139Z" fill="#B5B5B5"/>
<path d="M15.5041 7.44705C15.5041 9.20999 14.1787 10.4996 12.7935 10.4996C11.4061 10.4996 10.0828 9.20765 10.0828 7.47145C10.0828 5.73841 11.3916 4.5166 12.7935 4.5166C14.2 4.5166 15.5041 5.71878 15.5041 7.44705ZM18.104 17.922H7.4708C7.09223 17.922 6.85933 17.8354 6.73292 17.7384C6.62379 17.6547 6.55469 17.5352 6.55469 17.3355C6.55469 16.4973 7.09605 15.3962 8.18776 14.4859C9.26419 13.5884 10.8357 12.9157 12.7935 12.9157C14.7512 12.9157 16.3228 13.5884 17.3992 14.4859C18.4909 15.3962 19.0323 16.4973 19.0323 17.3355C19.0323 17.5311 18.9633 17.651 18.8503 17.7366C18.7199 17.8354 18.4824 17.922 18.104 17.922Z" stroke="#B5B5B5"/>
</svg>
