<svg width="13" height="17" viewBox="0 0 13 17" fill="none" xmlns="http://www.w3.org/2000/svg">
<path d="M2.40778 17C4.75356 17 6.30363 15.718 6.67565 13.1444L7.97771 4.14152C8.23606 2.32714 9.0421 1.56787 10.4578 1.56787C11.5015 1.56787 11.8219 1.69605 12.2456 1.69605C12.69 1.69605 13 1.42981 13 0.966352C13 0.207076 11.7909 0 10.5922 0C8.24639 0 6.69631 1.2819 6.3243 3.85556L5.03257 12.8683C4.77423 14.6826 3.95785 15.4321 2.54212 15.4321C1.50874 15.4321 1.19872 15.3039 0.764703 15.3039C0.310015 15.3039 0 15.5701 0 16.0336C0 16.8027 1.20906 17 2.40778 17ZM1.88075 8.60845H11.9459C12.4419 8.60845 12.7932 8.28305 12.7932 7.82945C12.7932 7.37585 12.4315 7.04059 11.9356 7.04059H1.87042C1.3744 7.04059 1.02305 7.36599 1.02305 7.82945C1.02305 8.28305 1.38473 8.60845 1.88075 8.60845Z" fill="#B5B5B5"/>
</svg>
