<svg width="18" height="18" viewBox="0 0 18 18" fill="none" xmlns="http://www.w3.org/2000/svg">
<path d="M8.86588 3.80262C9.21198 3.80262 9.49912 3.5116 9.49912 3.15342V1.5491C9.49912 1.19092 9.21198 0.899902 8.86588 0.899902C8.51246 0.899902 8.22525 1.19092 8.22525 1.5491V3.15342C8.22525 3.5116 8.51246 3.80262 8.86588 3.80262ZM12.4741 5.33232C12.7244 5.57857 13.1294 5.58603 13.3798 5.33232L14.5064 4.19064C14.7494 3.9444 14.7494 3.52652 14.5064 3.27282C14.2634 3.02657 13.851 3.02657 13.6081 3.27282L12.4741 4.42196C12.2311 4.66821 12.2311 5.08608 12.4741 5.33232ZM13.9689 8.99616C13.9689 9.34688 14.2634 9.63786 14.6095 9.63786H16.1927C16.5388 9.63786 16.8259 9.34688 16.8259 8.99616C16.8259 8.64543 16.5388 8.34696 16.1927 8.34696H14.6095C14.2634 8.34696 13.9689 8.64543 13.9689 8.99616ZM12.4741 12.66C12.2311 12.9137 12.2311 13.3241 12.4741 13.5703L13.6081 14.727C13.851 14.9732 14.2634 14.9583 14.5064 14.7195C14.7494 14.4658 14.7494 14.0554 14.5064 13.8091L13.3724 12.66C13.1294 12.4138 12.7244 12.4212 12.4741 12.66ZM8.86588 14.1897C8.51246 14.1897 8.22525 14.4807 8.22525 14.8314V16.4432C8.22525 16.794 8.51246 17.0849 8.86588 17.0849C9.21198 17.0849 9.49912 16.794 9.49912 16.4432V14.8314C9.49912 14.4807 9.21198 14.1897 8.86588 14.1897ZM5.25034 12.66C4.99998 12.4212 4.58762 12.4138 4.34461 12.66L3.21798 13.8017C2.97498 14.0479 2.97498 14.4583 3.21062 14.7121C3.45362 14.9508 3.87334 14.9657 4.11634 14.7195L5.24298 13.5703C5.48597 13.3241 5.48597 12.9137 5.25034 12.66ZM3.75552 8.99616C3.75552 8.64543 3.46098 8.34696 3.11489 8.34696H1.53171C1.18562 8.34696 0.898438 8.64543 0.898438 8.99616C0.898438 9.34688 1.18562 9.63786 1.53171 9.63786H3.11489C3.46098 9.63786 3.75552 9.34688 3.75552 8.99616ZM5.24298 5.33232C5.48597 5.09354 5.48597 4.66075 5.25034 4.42196L4.1237 3.27282C3.88807 3.03403 3.46834 3.02657 3.22535 3.27282C2.98234 3.52652 2.98234 3.9444 3.21798 4.18318L4.34461 5.33232C4.58762 5.57857 4.99262 5.57857 5.24298 5.33232Z" fill="#5B5B5B"/>
<path d="M8.86482 12.7942C10.934 12.7942 12.6129 11.0928 12.6129 8.99605C12.6129 6.89923 10.934 5.19043 8.86482 5.19043C6.79565 5.19043 5.10938 6.89923 5.10938 8.99605C5.10938 11.0928 6.79565 12.7942 8.86482 12.7942ZM8.86482 11.66C7.40682 11.66 6.22864 10.4735 6.22864 8.99605C6.22864 7.51857 7.40682 6.32466 8.86482 6.32466C10.3228 6.32466 11.4936 7.51857 11.4936 8.99605C11.4936 10.4735 10.3228 11.66 8.86482 11.66Z" fill="#5B5B5B"/>
</svg>
