<svg width="13" height="16" viewBox="0 0 13 16" fill="none" xmlns="http://www.w3.org/2000/svg">
<path d="M4.23855 13.5623C4.47823 13.5623 4.63591 13.4026 4.62961 13.1697L4.43407 6.05125C4.42777 5.81841 4.27009 5.66539 4.04302 5.66539C3.80334 5.66539 3.64566 5.82506 3.65197 6.05791L3.84119 13.1697C3.84749 13.4093 4.00518 13.5623 4.23855 13.5623ZM6.10553 13.5623C6.34521 13.5623 6.51551 13.4026 6.51551 13.1697V6.05791C6.51551 5.82506 6.34521 5.66539 6.10553 5.66539C5.86585 5.66539 5.70185 5.82506 5.70185 6.05791V13.1697C5.70185 13.4026 5.86585 13.5623 6.10553 13.5623ZM7.97881 13.5623C8.2059 13.5623 8.36355 13.4093 8.36988 13.1697L8.55912 6.05791C8.56539 5.82506 8.40773 5.66539 8.16805 5.66539C7.94096 5.66539 7.7833 5.81841 7.77697 6.05791L7.58773 13.1697C7.58146 13.4026 7.73912 13.5623 7.97881 13.5623ZM3.3366 3.92901H4.33947V2.50531C4.33947 2.1261 4.59176 1.87994 4.9702 1.87994H7.22824C7.60665 1.87994 7.859 2.1261 7.859 2.50531V3.92901H8.86185V2.43878C8.86185 1.47412 8.26893 0.888672 7.2976 0.888672H4.90082C3.92949 0.888672 3.3366 1.47412 3.3366 2.43878V3.92901ZM0.473052 4.46123H11.7443C12.0029 4.46123 12.211 4.22838 12.211 3.95562C12.211 3.68285 12.0029 3.45666 11.7443 3.45666H0.473052C0.220758 3.45666 0 3.68285 0 3.95562C0 4.23504 0.220758 4.46123 0.473052 4.46123ZM3.21676 15.7045H9.00058C9.90254 15.7045 10.508 15.0857 10.5522 14.1345L10.9937 4.33483H9.97824L9.55564 14.0213C9.54305 14.4205 9.27185 14.6999 8.89969 14.6999H3.30506C2.94554 14.6999 2.67432 14.4138 2.6554 14.0213L2.20758 4.33483H1.21732L1.66514 14.1411C1.70929 15.0924 2.30219 15.7045 3.21676 15.7045Z" fill="#B5B5B5"/>
</svg>
