<svg width="10" height="19" viewBox="0 0 10 19" fill="none" xmlns="http://www.w3.org/2000/svg">
<path d="M0.490848 19.0001H9.19298C9.46756 19.0001 9.6922 18.7733 9.6922 18.465C9.6922 18.1567 9.46756 17.9209 9.19298 17.9209H0.490848C0.224625 17.9209 0 18.1567 0 18.465C0 18.7733 0.224625 19.0001 0.490848 19.0001Z" fill="#B5B5B5"/>
<path d="M4.84192 16.2159C7.83693 16.2159 9.6922 14.257 9.6922 11.4093V3.61882C9.6922 3.11095 9.38432 2.77539 8.91015 2.77539C8.44425 2.77539 8.15306 3.11095 8.15306 3.61882V11.2733C8.15306 13.2957 6.93011 14.6742 4.84192 14.6742C2.76206 14.6742 1.5391 13.2957 1.5391 11.2733V3.61882C1.5391 3.11095 1.23128 2.77539 0.75707 2.77539C0.291181 2.77539 0 3.11095 0 3.61882V11.4093C0 14.257 1.84692 16.2159 4.84192 16.2159Z" fill="#B5B5B5"/>
</svg>
