<svg width="16" height="15" viewBox="0 0 16 15" fill="none" xmlns="http://www.w3.org/2000/svg">
<path d="M10.3304 5.23382C10.4258 5.23382 10.5007 5.16568 10.5211 5.06345C10.8208 3.53009 11.0252 3.19616 12.6123 2.96445C12.7213 2.95082 12.7894 2.86904 12.7894 2.77363C12.7894 2.66459 12.7213 2.58281 12.6123 2.56918C11.0252 2.33747 10.7528 1.96947 10.5211 0.483808C10.5007 0.367954 10.4258 0.299805 10.3304 0.299805C10.2214 0.299805 10.1465 0.367954 10.126 0.476993C9.82637 1.99673 9.622 2.33747 8.04169 2.56918C7.92583 2.58281 7.85775 2.66459 7.85775 2.77363C7.85775 2.86904 7.92583 2.944 8.04169 2.96445C9.622 3.19616 9.88761 3.53009 10.126 5.05664C10.1397 5.16568 10.2078 5.23382 10.3304 5.23382ZM2.73532 10.8221C2.83749 10.8221 2.90561 10.754 2.91923 10.6586C3.12359 9.3773 3.12359 9.28191 4.51318 9.06383C4.60854 9.05022 4.67666 8.98888 4.67666 8.88664C4.67666 8.78441 4.60854 8.72307 4.51318 8.70946C3.12359 8.49138 3.12359 8.39598 2.91923 7.11475C2.90561 7.01934 2.83749 6.95119 2.73532 6.95119C2.63995 6.95119 2.57183 7.01934 2.55821 7.11475C2.35386 8.39598 2.35386 8.49138 0.964263 8.70946C0.868899 8.72307 0.800781 8.78441 0.800781 8.88664C0.800781 8.98888 0.868899 9.05022 0.964263 9.06383C2.35386 9.28191 2.35386 9.3773 2.55821 10.6586C2.57183 10.754 2.63995 10.8221 2.73532 10.8221ZM5.01044 12.7439C5.09218 12.7439 5.14667 12.6825 5.16711 12.6008C5.28972 11.8443 5.25566 11.8102 6.12075 11.6535C6.20249 11.633 6.25699 11.5717 6.25699 11.4967C6.25699 11.4218 6.20249 11.3536 6.12075 11.34C5.26247 11.1833 5.30334 11.1628 5.16711 10.3859C5.14667 10.311 5.08537 10.2496 5.01044 10.2496C4.9287 10.2496 4.8742 10.311 4.85377 10.3996C4.69028 11.1628 4.7584 11.2037 3.90693 11.34C3.81838 11.3536 3.76389 11.415 3.76389 11.4967C3.76389 11.5717 3.81838 11.633 3.90012 11.6535C4.7584 11.8102 4.69028 11.8443 4.85377 12.6008C4.8742 12.6825 4.9287 12.7439 5.01044 12.7439Z" fill="#9747FF"/>
<path d="M13.9399 13.5075C14.2328 13.2008 14.2328 12.7374 13.9331 12.4307L5.22769 3.71438C4.92797 3.40771 4.43071 3.40771 4.14461 3.71438C3.85171 4.02105 3.85171 4.48447 4.15143 4.79115L12.8569 13.5075C13.1565 13.8141 13.6538 13.8073 13.9399 13.5075ZM13.5448 13.1054C13.4495 13.2008 13.2996 13.2008 13.2042 13.1054L6.96468 6.86289L7.30526 6.52895L13.5448 12.7714C13.6402 12.8668 13.6402 13.01 13.5448 13.1054Z" fill="#9747FF"/>
</svg>
